# xmcd
#
# Track frame offsets:
#	150
#	27690
#	52322
#	77032
#	95145
#	119604
#	146077
#	168690
#	190870
#	215170
#	236320
#	253300
#	274480
#	295845
#
# Disc length: 4212 seconds
#
# Revision: 0
# Processed by: cddbd v1.5.2PL0 Copyright (c) Steve Scherf et al.
# Submitted via: EasyCDDAExtractor 16.0.9.1
#
DISCID=ed10720e
DTITLE=Various Artist - GNCD: Huế Đẹp and Thơ 2 - Trên Sông Hương
DYEAR=1996
DGENRE=Country
TTITLE0=Hương Lan - Mưa Trên Phố Huế (Nhạc: Minh Kỳ, Lời Thơ: Tôn Nữ Thụy Khươ
TTITLE0=ng)
TTITLE1=Hà Thanh - Vỹ Dạ Đò Trăng (Canh Thân)
TTITLE2=Mỹ Thể - Nón Bài Thơ (Khuyết Danh)
TTITLE3=Vũ Khanh - Cơn Mê Chiều (Nguyễn Minh Khôi)
TTITLE4=Thanh Mai - Huế Đẹp and Thơ 2 (Minh Kỳ)
TTITLE5=Ngọc Hoa - Cầu Sương Điểm Cỏ (Khuyết Danh)
TTITLE6=Mai Hương - Trên Sông Hương (Khuyết Danh)
TTITLE7=Thanh Thúy - Về Với Sông Hương (Khuyết Danh)
TTITLE8=Hương Lan - Tiếng Chuông Linh Mụ (Khuyết Danh)
TTITLE9=Hà Thanh - Từ Đàm Quê Hương Tôi (Nguyên Thông)
TTITLE10=Băng Châu - Mùa Đông Xứ Huế (Lê Dinh - Minh Kỳ)
TTITLE11=Kim Loan - Thần Kinh Thương Nhớ (Thế Minh)
TTITLE12=Mỹ Thể - Trăng Về Quê Hương (Khuyết Danh)
TTITLE13=Xuân Thu - Hẹn Một Ngày Về (Lê Hữu Mục)
EXTD=
EXTT0=
EXTT1=
EXTT2=
EXTT3=
EXTT4=
EXTT5=
EXTT6=
EXTT7=
EXTT8=
EXTT9=
EXTT10=
EXTT11=
EXTT12=
EXTT13=
PLAYORDER=
